<svg xmlns="http://www.w3.org/2000/svg" width="401.59440533324005" height="144.79720266662002" version="1.1"><rect id="backgroundrect" width="100%" height="100%" x="0" y="0" fill="none" stroke="none" class="selected" style=""/>
<defs id="SvgjsDefs1033"/>
<g class="currentLayer" style=""><title>Layer 1</title><g id="SvgjsG1034" featurekey="root" fill="#000000" class="" fill-opacity="1"/><g id="SvgjsG1035" featurekey="container1" fill="#000000" class="" fill-opacity="1"><path xmlns="http://www.w3.org/2000/svg" d="M20,5 v135.0000019788055 h135.0000019788055 V5 zm131.8876100023489,131.8876100023489 H23.11239197645661 V8.11239197645661 h128.7752180258923 z" fill="#000000" stroke-width="0" id="svg_1" fill-opacity="1"/></g><g id="SvgjsG1036" featurekey="symbol1" fill="#000000" class="" fill-opacity="1"><path d="M108.63910254778364,65.16663344809156 c-0.5658898991311868,0 -1.111569444721974,-0.34357601018679196 -1.3367705270292831,-0.9036915225921502 c-2.6648794739698234,-6.574139287355675 -8.967622585211561,-10.826975110928318 -16.061456677891794,-10.826975110928318 c-3.6234276704573434,0 -7.0938340926802335,1.1057950579961455 -10.030109742763994,3.1961230527460396 c-0.646731313292785,0.45906374470336075 -1.547535642522021,0.3089296898318214 -2.0094865805882955,-0.33780162346096354 c-0.4648381314291892,-0.6525057000186133 -0.3118168831947356,-1.5504228358849352 0.33780162346096354,-2.0094865805882955 c3.427098521779177,-2.4454527783883426 7.474943616584911,-3.736028211610998 11.701794699891327,-3.736028211610998 c8.277583371475064,0 15.631264866817576,4.957311004123713 18.737884925313278,12.631470962749704 c0.3002681097430787,0.7362343075431257 -0.05774386725828437,1.5764075761511631 -0.7939781748014101,1.876675685894242 c-0.17900598850068156,0.07217983407285546 -0.36089917036427727,0.10971334779074031 -0.5456795455907874,0.10971334779074031 z" fill="#000000" stroke-width="0" id="svg_2" fill-opacity="1"/><path d="M91.24087534286255,47.66158008874265 c-0.7968653681643243,0 -1.443596681457109,-0.6496185066556991 -1.443596681457109,-1.443596681457109 v-5.774386725828436 c0,-0.7939781748014101 0.646731313292785,-1.443596681457109 1.443596681457109,-1.443596681457109 c0.7939781748014101,0 1.443596681457109,0.6496185066556991 1.443596681457109,1.443596681457109 v5.774386725828436 c0,0.7939781748014101 -0.6496185066556991,1.443596681457109 -1.443596681457109,1.443596681457109 z" fill="#000000" stroke-width="0" id="svg_3" fill-opacity="1"/><path d="M121.55640565346184,72.2027236735135 h-5.774386725828436 c-0.7968653681643243,0 -1.443596681457109,-0.6496185066556991 -1.443596681457109,-1.443596681457109 s0.646731313292785,-1.443596681457109 1.443596681457109,-1.443596681457109 h5.774386725828436 c0.7939781748014101,0 1.443596681457109,0.6496185066556991 1.443596681457109,1.443596681457109 s-0.6496185066556991,1.443596681457109 -1.443596681457109,1.443596681457109 z" fill="#000000" stroke-width="0" id="svg_4" fill-opacity="1"/><path d="M72.82924326755858,55.23468827966665 c-0.36956075045301995,0 -0.7391215009060399,-0.1414724747827967 -1.0220664504716332,-0.4215302309854759 l-4.04495790144282,-4.039183514716991 c-0.5630027057682726,-0.5572283190424441 -0.5630027057682726,-1.4840173885379082 0,-2.0412457075803525 s1.4782430018120798,-0.5572283190424441 2.0412457075803525,0 l4.04495790144282,4.039183514716991 c0.5630027057682726,0.5630027057682726 0.5630027057682726,1.4869045819008224 0,2.0412457075803525 c-0.28583214292850767,0.2800577562026792 -0.6525057000186133,0.4215302309854759 -1.019179257108719,0.4215302309854759 z" fill="#000000" stroke-width="0" id="svg_5" fill-opacity="1"/><path d="M108.6304409676949,54.215509022557924 c-0.36956075045301995,0 -0.7391215009060399,-0.1414724747827967 -1.0220664504716332,-0.4215302309854759 c-0.5601155124053583,-0.5601155124053583 -0.5601155124053583,-1.481130195174994 0,-2.0412457075803525 l3.0286658376970146,-3.0257786443341006 c0.5630027057682726,-0.5630027057682726 1.4782430018120798,-0.5630027057682726 2.0412457075803525,0 s0.5630027057682726,1.4782430018120798 0,2.0412457075803525 l-3.0286658376970146,3.0257786443341006 c-0.2829449495655934,0.2800577562026792 -0.6525057000186133,0.4215302309854759 -1.019179257108719,0.4215302309854759 z" fill="#000000" stroke-width="0" id="svg_6" fill-opacity="1"/><path d="M101.65209460953122,106.84904402848413 h-26.045371326849164 c-12.25324863220794,0 -22.606724031618327,-10.81542633747666 -22.606724031618327,-23.623016095364132 c0,-12.810476951250386 10.350588206047473,-23.625903288727045 22.606724031618327,-23.625903288727045 c7.532687483843195,0 14.40132049421612,3.658073990812314 18.63105877088545,9.836667787448741 c2.379047331041316,-1.1346669916252878 4.870695203236286,-1.7005568907564743 7.414312555963712,-1.7005568907564743 c9.605692318415604,0 17.724480054930385,8.586513061306885 17.724480054930385,18.729223345224533 c-0.0028871933629142188,9.43823510336658 -7.743452599335932,20.38358514217438 -17.724480054930385,20.38358514217438 zM75.60672328268207,62.49886678075882 c-10.688389829508436,0 -19.71953066870411,9.495978970624863 -19.71953066870411,20.741597119175744 s9.02825364583276,20.741597119175744 19.71953066870411,20.741597119175744 h26.045371326849164 c8.358424785636661,0 14.837286692016168,-9.394927202922865 14.837286692016168,-17.48773019917142 c0,-8.442153393161174 -6.935038457719952,-15.8391427889474 -14.837286692016168,-15.8391427889474 c-2.480099098743313,0 -4.9053415235912565,0.6611672801073559 -7.215096213922632,1.95751710005584 l-1.2212827925127143,0.6871520203735839 l-0.7217983407285545,-1.2010724389723149 c-3.6089917036427726,-6.019798161676145 -9.923283588336167,-9.599917931689776 -16.88719397968526,-9.599917931689776 z" fill="#000000" stroke-width="0" id="svg_7" fill-opacity="1"/></g><g id="SvgjsG1037" featurekey="text1" fill="#000000" class="" fill-opacity="1"><path d="M239.6605788737393,73.18864713223547 l-31.840783725883185,-0.00024919074403527343 c0.22406166278873513,1.7578677362791226 0.7421675024655752,3.38815035597535 1.5543175190305143,4.890762802344295 s1.8482776832966497,2.8068725648236823 3.108467012817092,3.9126102418754356 s2.6884039029769444,1.9705095972506135 4.2846437203695045,2.5942307038521912 s3.290522364621812,0.9356241882745607 5.082763629065785,0.9356241882745607 c1.0641878824690296,0 2.0303330351013695,-0.08505674438859649 2.8984354578970186,-0.2551702331657903 s1.6802524393605904,-0.4394881982558774 2.4363660370728564,-0.8080390716916643 s1.5122271954245312,-0.8221584912601706 2.268340793136797,-1.3608228534731543 s1.5822097095238998,-1.1482660492460517 2.478372348056871,-1.8287200043548233 c0.33605048787211966,-0.2834941290471938 0.6861310836128957,-0.524459885900086 1.050157774600369,-0.7228972705586814 s0.8540723149269879,-0.2976986053600888 1.470136871818549,-0.2976986053600888 c1.0641878824690296,0 1.960350521002001,0.3685508734357894 2.688487915598913,1.105737677051754 s1.0921640855843837,1.6160781433833327 1.0921640855843837,2.636759076046489 c0,0.6237211066015772 -0.11198882508338386,1.1340615729331573 -0.33605048787211966,1.5310213989947357 s-0.4760995286928236,0.7655106994973637 -0.7561135977122615,1.105737677051754 c-0.8961626385329708,1.0206809326631572 -1.94632041313334,1.9421006446248223 -3.150473323801107,2.764344192629385 s-2.4923184433035637,1.5026975031133327 -3.8644965979073893,2.0413618653263144 s-2.772416524944974,0.949743607843068 -4.200631098401476,1.2332377368902598 s-2.7864466328136355,0.42528372194297887 -4.074612165449431,0.42528372194297887 c-2.9684179719963866,0 -5.7687266874347465,-0.5811927344072797 -8.401262196802952,-1.7436632599662265 s-4.9286004677544515,-2.7360202967479816 -6.88903500137842,-4.720649313567101 s-3.5145000147885788,-4.295365591624119 -4.662700519225638,-6.9321246676706085 s-1.7222587503446052,-5.45766600369429 -1.7222587503446052,-8.463146066665344 s0.5740582459075457,-5.840421353442973 1.7222587503446052,-8.505674438859641 s2.7024340108456055,-4.989853909557009 4.662700519225638,-6.974653039864906 s4.256499492010215,-3.5581787880081537 6.88903500137842,-4.720649313567101 s5.4326761995626285,-1.7436632599662265 8.401262196802952,-1.7436632599662265 c2.8564291469130043,0 5.544833049889948,0.4820165704501768 8.065211708930832,1.4459646546061395 s4.760575223818393,2.339060470686402 6.721009757442361,4.125252102846925 s3.5285301226572394,3.9126102418754356 4.704706830209654,6.379255829144731 s1.8482776832966497,5.1744270448802645 2.0163029272327084,8.122919089110958 c0.05603641885267603,1.1340615729331573 -0.29404417688810447,2.0554812848948214 -1.050157774600369,2.7642591358849953 s-1.6382461283765757,1.0632093048574551 -2.6463975919929297,1.0632093048574551 zM221.84990301651706,56.85775220962495 c-2.9124655657656797,0 -5.544833049889948,0.8080390716916643 -7.897186464994774,2.424117215074998 s-4.088642273318092,3.7282922767853472 -5.20878256201783,6.336727456950433 l26.127925432057175,0 c-1.0641878824690296,-2.6650829719278923 -2.7864466328136355,-4.791671695131579 -5.166776251033815,-6.379255829144731 s-4.998751007097756,-2.3815888428807 -7.8551801540107595,-2.3815888428807 zM283.2631296751466,54.47616336674426 l-14.030107868660924,35.213492176878916 l-7.309098111218567,18.03202981038244 c-0.2800140690194443,0.737186803615967 -0.7280533819749455,1.3183795380232448 -1.3441179388665045,1.7436632599662265 s-1.3161417357511516,0.6379255829144734 -2.1002315365787703,0.6379255829144734 c-1.0081514636163542,0 -1.8762538864120035,-0.3685508734357894 -2.604391281008915,-1.105737677051754 s-1.0921640855843837,-1.6160781433833327 -1.0921640855843837,-2.636759076046489 c0,-0.5103404663315788 0.08401262196802955,-0.992357036781755 0.25203786590408983,-1.4459646546061395 l6.721009757442361,-16.6711219001649 l-13.442019514884722,-33.76752752227278 c-0.16802524393605903,-0.3969598260615809 -0.25203786590408983,-0.8789763965117554 -0.25203786590408983,-1.4460497113505282 c0,-1.0206809326631572 0.36402669098747303,-1.8995722724305246 1.0921640855843837,-2.636759076046489 s1.596239817392561,-1.105737677051754 2.604391281008915,-1.105737677051754 c0.7840898008276174,0 1.4981970875558703,0.21264186097149315 2.1423218601847527,0.6379255829144734 s1.1061941934530457,1.0064764563502615 1.3862082624724925,1.7436632599662265 l10.501577746003688,27.218158204350853 l10.585590367971717,-27.218158204350853 c0.2800140690194443,-0.737186803615967 0.7280533819749455,-1.3183795380232448 1.3441179388665045,-1.7436632599662265 s1.3161417357511516,-0.6379255829144734 2.1002315365787703,-0.6379255829144734 c1.0641878824690296,0 1.960350521002001,0.3685508734357894 2.688487915598913,1.105737677051754 s1.0921640855843837,1.6160781433833327 1.0921640855843837,2.636759076046489 c0,0.567073314838773 -0.11198882508338386,1.0490898852889483 -0.33605048787211966,1.4460497113505282 zM306.87067644816295,92.92181183038984 c-2.2963169962521506,0 -4.466531046930289,-0.4394881982558774 -6.5109782025222875,-1.3183795380232448 s-3.822574299545343,-2.0838902375206123 -5.334801494969875,-3.6149116365153477 s-2.7024340108456055,-3.331417507468156 -3.5705364336412546,-5.401103268675873 s-1.3021956405044575,-4.266871582253939 -1.3021956405044575,-6.591897690116223 l0,-22.54003726297805 c0,-1.0774137811703508 0.36402669098747303,-1.9847140735635105 1.0921640855843837,-2.721900877179474 s1.624300033129883,-1.105737677051754 2.688487915598913,-1.105737677051754 c1.0081514636163542,0 1.8762538864120035,0.3685508734357894 2.604391281008915,1.105737677051754 s1.0921640855843837,1.6444870960091236 1.0921640855843837,2.721900877179474 l0,22.54003726297805 c0,1.3041750617103511 0.23800775803542992,2.523293379032102 0.7141072867282511,3.6573549519652584 s1.1341703965683985,2.1264186097149103 1.9742966162486937,2.976986053600875 s1.8203014801812953,1.5168169226818404 2.940441768881033,1.998833493132016 s2.3242931993675042,0.7229823273030697 3.612458732003302,0.7229823273030697 c1.2322131264050893,0 2.4083898339575023,-0.24096575685289634 3.5285301226572394,-0.7229823273030697 s2.100315549200738,-1.1482660492460517 2.940441768881033,-1.998833493132016 s1.5122271954245312,-1.8429244806677187 2.0163029272327084,-2.976986053600875 s0.7561135977122615,-2.3531798902549093 0.7561135977122615,-3.6573549519652584 l0,-22.54003726297805 c0,-1.0774137811703508 0.36402669098747303,-1.9847140735635105 1.0921640855843837,-2.721900877179474 s1.596239817392561,-1.105737677051754 2.604391281008915,-1.105737677051754 s1.8762538864120035,0.3685508734357894 2.604391281008915,1.105737677051754 s1.0921640855843837,1.6444870960091236 1.0921640855843837,2.721900877179474 l0,22.54003726297805 c0,2.324855994373506 -0.43409321770880793,4.522041815419729 -1.3021956405044575,6.591897690116223 s-2.058309238216723,3.8700818696811377 -3.5705364336412546,5.401103268675873 s-3.2764922567531505,2.7360202967479816 -5.2927951839858585,3.6149116365153477 s-4.172654895286122,1.3183795380232448 -6.468971891538273,1.3183795380232448 zM342.9961038944156,51.839404290697765 c2.6323674841242686,-1.7011348877719281 5.460820427921918,-2.551617274913504 8.48527481877098,-2.551617274913504 c2.1282917523160916,0 4.1445946795488,0.41107924563008896 6.048908781698124,1.2333227936346485 s3.5705364336412546,1.9563051209377176 4.998751007097756,3.4022697755438567 s2.5483548621562395,3.132895066065172 3.3605048787211804,5.060876291121487 s1.2181830185364284,3.969343090382629 1.2181830185364284,6.124085595978942 l0,24.24117215074998 c0,1.0206809326631572 -0.36402669098747303,1.8995722724305246 -1.0921640855843837,2.636759076046489 s-1.596239817392561,1.105737677051754 -2.604391281008915,1.105737677051754 c-1.0641878824690296,0 -1.960350521002001,-0.3685508734357894 -2.688487915598913,-1.105737677051754 s-1.0921640855843837,-1.6160781433833327 -1.0921640855843837,-2.636759076046489 l0,-24.24117215074998 c0,-1.1340615729331573 -0.21003155492007555,-2.1972708777906114 -0.6300946647602211,-3.1896279145723665 s-1.0081514636163542,-1.8712483765491215 -1.7642650613286197,-2.636759076046489 s-1.6242160205079146,-1.3609079102175472 -2.604391281008915,-1.7861916321605253 s-2.0303330351013695,-0.6379255829144734 -3.150473323801107,-0.6379255829144734 s-2.1843281711687674,0.21264186097149315 -3.1924796347851214,0.6379255829144734 s-1.8762538864120035,1.0206809326631572 -2.604391281008915,1.7861916321605253 s-1.3021956405044575,1.644402039264735 -1.7222587503446052,2.636759076046489 s-0.6300946647602211,2.05556634163921 -0.6300946647602211,3.1896279145723665 c0,0.17011348877719296 -0.05603641885267603,0.42528372194297887 -0.16802524393605903,0.7655106994973637 l0,23.47566145125261 c0,1.0206809326631572 -0.36402669098747303,1.8995722724305246 -1.0921640855843837,2.636759076046489 s-1.596239817392561,1.105737677051754 -2.604391281008915,1.105737677051754 c-1.0641878824690296,0 -1.960350521002001,-0.3685508734357894 -2.688487915598913,-1.105737677051754 s-1.0921640855843837,-1.6160781433833327 -1.0921640855843837,-2.636759076046489 l0,-36.82957032026225 c0,-1.0774137811703508 0.36402669098747303,-1.9847140735635105 1.0921640855843837,-2.721900877179474 s1.624300033129883,-1.105737677051754 2.688487915598913,-1.105737677051754 c2.0163029272327084,0 3.1924796347851214,1.0490048285445601 3.5285301226572394,3.147099542378068 z" stroke-width="0" id="svg_8" fill="#000000" fill-opacity="1"/></g></g></svg>