<svg xmlns="http://www.w3.org/2000/svg" width="375" height="375" version="1.1">
<defs id="SvgjsDefs1033"></defs><g id="SvgjsG1034" featurekey="root" fill="#faeb17"></g><g id="SvgjsG1035" featurekey="container1" fill="#000000" transform="matrix(1.2968299901902547,0,0,1.2968299901902547,20,5)"><path xmlns="http://www.w3.org/2000/svg" d="M0 0v104.1h104.1V0zm101.7 101.7H2.4V2.4h99.3z" fill=""></path></g><g id="SvgjsG1036" featurekey="symbol1" fill="#000000" transform="matrix(0.7217983407285545,0,0,0.7217983407285545,53.35223684133927,38.278201659271446)"><path d="M76.596 37.252c-0.784 0-1.54-0.476-1.852-1.252-3.692-9.108-12.424-15-22.252-15-5.020 0-9.828 1.532-13.896 4.428-0.896 0.636-2.144 0.428-2.784-0.468-0.644-0.904-0.432-2.148 0.468-2.784 4.748-3.388 10.356-5.176 16.212-5.176 11.468 0 21.656 6.868 25.96 17.5 0.416 1.020-0.080 2.184-1.1 2.6-0.248 0.1-0.5 0.152-0.756 0.152z" fill="#000000"></path><path d="M52.492 13c-1.104 0-2-0.9-2-2v-8c0-1.1 0.896-2 2-2 1.1 0 2 0.9 2 2v8c0 1.1-0.9 2-2 2z" fill="#000000"></path><path d="M94.492 47h-8c-1.104 0-2-0.9-2-2s0.896-2 2-2h8c1.1 0 2 0.9 2 2s-0.9 2-2 2z" fill="#000000"></path><path d="M26.984 23.492c-0.512 0-1.024-0.196-1.416-0.584l-5.604-5.596c-0.78-0.772-0.78-2.056 0-2.828s2.048-0.772 2.828 0l5.604 5.596c0.78 0.78 0.78 2.060 0 2.828-0.396 0.388-0.904 0.584-1.412 0.584z" fill="#000000"></path><path d="M76.584 22.080c-0.512 0-1.024-0.196-1.416-0.584-0.776-0.776-0.776-2.052 0-2.828l4.196-4.192c0.78-0.78 2.048-0.78 2.828 0s0.78 2.048 0 2.828l-4.196 4.192c-0.392 0.388-0.904 0.584-1.412 0.584z" fill="#000000"></path><path d="M66.916 95h-36.084c-16.976 0-31.32-14.984-31.32-32.728 0-17.748 14.34-32.732 31.32-32.732 10.436 0 19.952 5.068 25.812 13.628 3.296-1.572 6.748-2.356 10.272-2.356 13.308 0 24.556 11.896 24.556 25.948-0.004 13.076-10.728 28.24-24.556 28.24zM30.832 33.556c-14.808 0-27.32 13.156-27.32 28.736s12.508 28.736 27.32 28.736h36.084c11.58 0 20.556-13.016 20.556-24.228 0-11.696-9.608-21.944-20.556-21.944-3.436 0-6.796 0.916-9.996 2.712l-1.692 0.952-1-1.664c-5-8.34-13.748-13.3-23.396-13.3z" fill="#000000"></path></g><g id="SvgjsG1037" featurekey="text1" fill="#000000" transform="matrix(5.027685498499605,0,0,5.027685498499605,171.078201677096,-28.683724077860234)"><path d="M10.18 19.62 l-7.58 -0.000058594 c0.05334 0.41334 0.17668 0.79668 0.37002 1.15 s0.44 0.66 0.74 0.92 s0.64 0.46334 1.02 0.61 s0.78334 0.22 1.21 0.22 c0.25334 0 0.48334 -0.02 0.69 -0.06 s0.4 -0.10334 0.58 -0.19 s0.36 -0.19332 0.54 -0.31998 s0.37666 -0.27 0.59 -0.43 c0.08 -0.06666 0.16334 -0.12332 0.25 -0.16998 s0.20332 -0.07 0.34998 -0.07 c0.25334 0 0.46668 0.08666 0.64002 0.26 s0.26 0.38 0.26 0.62 c0 0.14666 -0.02666 0.26666 -0.08 0.36 s-0.11334 0.18 -0.18 0.26 c-0.21334 0.24 -0.46334 0.45666 -0.75 0.65 s-0.59332 0.35334 -0.91998 0.48 s-0.66 0.22332 -1 0.28998 s-0.66334 0.1 -0.97 0.1 c-0.70666 0 -1.3733 -0.13666 -2 -0.41 s-1.1733 -0.64334 -1.64 -1.11 s-0.83666 -1.01 -1.11 -1.63 s-0.41 -1.2833 -0.41 -1.99 s0.13666 -1.3733 0.41 -2 s0.64334 -1.1733 1.11 -1.64 s1.0133 -0.83666 1.64 -1.11 s1.2933 -0.41 2 -0.41 c0.68 0 1.32 0.11334 1.92 0.34 s1.1333 0.55 1.6 0.97 s0.84 0.92 1.12 1.5 s0.44 1.2167 0.48 1.91 c0.01334 0.26666 -0.07 0.48332 -0.25 0.64998 s-0.39 0.25 -0.63 0.25 z M5.94 15.78 c-0.69334 0 -1.32 0.19 -1.88 0.57 s-0.97334 0.87666 -1.24 1.49 l6.22 0 c-0.25334 -0.62666 -0.66334 -1.1267 -1.23 -1.5 s-1.19 -0.56 -1.87 -0.56 z M20.560000000000002 15.22 l-3.34 8.28 l-1.74 4.24 c-0.06666 0.17334 -0.17332 0.31 -0.31998 0.41 s-0.31332 0.15 -0.49998 0.15 c-0.24 0 -0.44666 -0.08666 -0.62 -0.26 s-0.26 -0.38 -0.26 -0.62 c0 -0.12 0.02 -0.23334 0.06 -0.34 l1.6 -3.92 l-3.2 -7.94 c-0.04 -0.09334 -0.06 -0.20668 -0.06 -0.34002 c0 -0.24 0.08666 -0.44666 0.26 -0.62 s0.38 -0.26 0.62 -0.26 c0.18666 0 0.35666 0.05 0.51 0.15 s0.26334 0.23666 0.33 0.41 l2.5 6.4 l2.52 -6.4 c0.06666 -0.17334 0.17332 -0.31 0.31998 -0.41 s0.31332 -0.15 0.49998 -0.15 c0.25334 0 0.46668 0.08666 0.64002 0.26 s0.26 0.38 0.26 0.62 c0 0.13334 -0.02666 0.24668 -0.08 0.34002 z M26.18 24.26 c-0.54666 0 -1.0633 -0.10334 -1.55 -0.31 s-0.91 -0.49 -1.27 -0.85 s-0.64334 -0.78334 -0.85 -1.27 s-0.31 -1.0033 -0.31 -1.55 l0 -5.3 c0 -0.25334 0.08666 -0.46668 0.26 -0.64002 s0.38668 -0.26 0.64002 -0.26 c0.24 0 0.44666 0.08666 0.62 0.26 s0.26 0.38668 0.26 0.64002 l0 5.3 c0 0.30666 0.05666 0.59332 0.17 0.85998 s0.27 0.5 0.47 0.7 s0.43334 0.35666 0.7 0.47 s0.55332 0.17 0.85998 0.17 c0.29334 0 0.57334 -0.05666 0.84 -0.17 s0.5 -0.27 0.7 -0.47 s0.36 -0.43334 0.48 -0.7 s0.18 -0.55332 0.18 -0.85998 l0 -5.3 c0 -0.25334 0.08666 -0.46668 0.26 -0.64002 s0.38 -0.26 0.62 -0.26 s0.44666 0.08666 0.62 0.26 s0.26 0.38668 0.26 0.64002 l0 5.3 c0 0.54666 -0.10334 1.0633 -0.31 1.55 s-0.49 0.91 -0.85 1.27 s-0.78 0.64334 -1.26 0.85 s-0.99334 0.31 -1.54 0.31 z M34.78 14.6 c0.62666 -0.4 1.3 -0.59998 2.02 -0.59998 c0.50666 0 0.98666 0.09666 1.44 0.29 s0.85 0.46 1.19 0.8 s0.60666 0.73666 0.8 1.19 s0.29 0.93334 0.29 1.44 l0 5.7 c0 0.24 -0.08666 0.44666 -0.26 0.62 s-0.38 0.26 -0.62 0.26 c-0.25334 0 -0.46668 -0.08666 -0.64002 -0.26 s-0.26 -0.38 -0.26 -0.62 l0 -5.7 c0 -0.26666 -0.05 -0.51666 -0.15 -0.75 s-0.24 -0.44 -0.42 -0.62 s-0.38666 -0.32 -0.62 -0.42 s-0.48334 -0.15 -0.75 -0.15 s-0.52 0.05 -0.76 0.15 s-0.44666 0.24 -0.62 0.42 s-0.31 0.38666 -0.41 0.62 s-0.15 0.48334 -0.15 0.75 c0 0.04 -0.01334 0.1 -0.04 0.18 l0 5.52 c0 0.24 -0.08666 0.44666 -0.26 0.62 s-0.38 0.26 -0.62 0.26 c-0.25334 0 -0.46668 -0.08666 -0.64002 -0.26 s-0.26 -0.38 -0.26 -0.62 l0 -8.66 c0 -0.25334 0.08666 -0.46668 0.26 -0.64002 s0.38668 -0.26 0.64002 -0.26 c0.48 0 0.76 0.24666 0.84 0.74 z"></path></g>
</svg>
